<?xml version="1.0" standalone="no"?>
<svg viewBox="0 0 200 200" xmlns="http://www.w3.org/2000/svg">
  <path fill="#FF0066" d="M24.9,-35.4C39.1,-29.6,62.1,-34.2,69.5,-28.6C76.8,-23.1,68.4,-7.2,61.3,5.4C54.1,17.9,48.1,27.2,40.4,33.4C32.6,39.7,23,42.8,14.5,41.9C6,41,-1.6,36,-16.2,39C-30.8,42,-52.4,53.1,-62.6,49.6C-72.8,46.2,-71.6,28.1,-65.3,14.7C-58.9,1.3,-47.5,-7.6,-42.9,-20.5C-38.4,-33.3,-40.7,-50.2,-34.7,-59.7C-28.7,-69.3,-14.4,-71.4,-4.5,-64.4C5.3,-57.4,10.7,-41.2,24.9,-35.4Z" transform="translate(100 100)" />
</svg>
